# xmcd
#
# Track frame offsets: 
#        150
#        19105
#        38996
#        56340
#        74686
#        93786
#        116388
#        134775
#        153576
#        175381
#        199825
#        217500
#
# Disc length: 3208 seconds
#
# Revision: 3
# Processed by: cddbd v1.5.2PL0 Copyright (c) Steve Scherf et al.
# Submitted via: ExactAudioCopy v1.0b2
#
DISCID=a60c860c
DTITLE=稲垣潤一 - 男と女3 -Two Hearts Two Voices-
DYEAR=2010
DGENRE=J-Pop
TTITLE0=愛が止まらない (Originally titled as TURN IT INTO LOVE) (Duet with 相川
TTITLE0=七瀬)
TTITLE1=浪漫飛行 (Duet with NOKKO)
TTITLE2=異邦人 (Duet with 荻野目洋子)
TTITLE3=TOMORROW (Duet with 玉城千春 from Kiroro)
TTITLE4=恋心 (Duet with 杏子)
TTITLE5=シルエット・ロマンス (Duet with 川嶋あい)
TTITLE6=笑顔の行方 (Duet with 水樹奈々)
TTITLE7=あなたに会えてよかった (Duet with 島谷ひとみ)
TTITLE8=また君に恋してる (Duet with 藤本美貴)
TTITLE9=埠頭を渡る風 (Duet with  EPO)
TTITLE10=夢をあきらめないで (Duet with 小比類巻かほる)
TTITLE11=オリビアを聴きながら (Duet with ヘイリー)
EXTD=YEAR: 2010
EXTT0=
EXTT1=
EXTT2=
EXTT3=
EXTT4=
EXTT5=
EXTT6=
EXTT7=
EXTT8=
EXTT9=
EXTT10=
EXTT11=
PLAYORDER=
